<svg width="760" height="220" viewBox="0 0 760 220" fill="none" xmlns="http://www.w3.org/2000/svg" role="img" aria-labelledby="title desc">
  <title id="title">MAI Coach</title>
  <desc id="desc">MAI Coach - My AI Golf Coach logo with angular M mark, golf ball, and lime swing arc.</desc>
  <g>
    <path d="M44 174L86 48L144 119L122 151L94 116L73 174H44Z" fill="#FFFFFF"/>
    <path d="M213 174L193 115L164 151L143 119L201 48L242 174H213Z" fill="#FFFFFF"/>
    <path d="M103 174C132 95 190 54 236 42C188 73 153 122 132 174H103Z" fill="#96CB39"/>
    <circle cx="141" cy="175" r="24" fill="#F2F2F2"/>
    <circle cx="141" cy="175" r="24" fill="url(#ballFull)" fill-opacity=".55"/>
    <path d="M121 166C129 161 139 160 150 163M122 182C133 176 146 175 160 181M132 154C139 168 148 181 162 190M151 154C143 166 137 180 136 195" stroke="#9EA6A2" stroke-width="2.2" stroke-linecap="round"/>
  </g>
  <g>
    <text x="300" y="119" fill="#FFFFFF" font-family="Inter, Arial, Helvetica, sans-serif" font-size="58" font-weight="900">MAI COACH</text>
    <text x="305" y="162" fill="#96CB39" font-family="Inter, Arial, Helvetica, sans-serif" font-size="23" font-weight="700" letter-spacing="7">MY AI GOLF COACH</text>
    <path d="M300 132H708" stroke="#BFBFBF" stroke-opacity=".28"/>
  </g>
  <defs>
    <radialGradient id="ballFull" cx="0" cy="0" r="1" gradientUnits="userSpaceOnUse" gradientTransform="translate(132 164) rotate(45) scale(44)">
      <stop offset="0" stop-color="#FFFFFF"/>
      <stop offset=".52" stop-color="#D9DEDB"/>
      <stop offset="1" stop-color="#737B77"/>
    </radialGradient>
  </defs>
</svg>
